P3
16 12
255
72 231 237 178 192 211 160 176 202 184 197 214 184 196 213 
172 185 206 161 177 203 134 156 190 104 134 179 92 124 174 
91 124 175 53 101 163 64 107 167 87 122 173 97 129 178 
95 126 175 179 195 216 177 192 211 172 186 205 174 187 205 
183 194 211 172 186 206 161 177 201 142 162 193 134 155 189 
133 154 189 116 142 182 88 123 172 111 140 181 126 149 188 
97 128 177 93 125 175 123 163 209 139 170 208 101 176 205 
167 183 205 164 179 202 165 180 202 166 180 202 165 180 202 
150 169 195 134 155 188 134 156 187 112 140 180 120 145 183 
112 139 179 114 139 179 124 145 181 162 196 227 143 180 216 
108 173 211 134 169 206 141 169 203 144 167 199 136 160 192 
145 166 193 142 163 190 159 174 194 144 163 187 111 155 184 
127 151 183 126 149 181 132 152 182 124 145 177 187 217 237 
180 209 228 173 203 222 163 195 217 155 187 212 151 181 208 
145 174 203 131 162 195 135 162 189 147 166 187 139 159 183 
130 154 182 116 145 179 125 148 179 121 144 176 111 137 171 
177 193 198 178 196 201 178 197 204 173 193 201 168 187 196 
164 184 193 165 185 197 158 178 194 147 169 187 142 163 182 
137 158 180 87 151 177 123 147 175 120 143 173 116 141 171 
113 138 168 122 109 91 134 132 128 148 157 163 147 159 169 
146 159 170 139 152 162 139 154 164 134 150 161 127 143 154 
123 138 148 108 129 141 104 123 138 102 123 140 103 123 140 
102 121 139 98 119 138 140 127 107 139 126 104 134 124 106 
131 125 112 139 139 136 144 148 151 32 149 154 142 149 158 
142 151 161 141 148 157 136 145 154 131 143 154 128 141 153 
127 139 151 120 132 144 112 126 138 141 126 103 140 125 104 
138 125 104 132 119 95 122 108 79 116 102 70 117 101 73 
116 102 80 119 109 94 121 113 103 108 112 106 120 120 121 
119 122 127 119 124 131 117 122 130 111 117 125 139 122 98 
135 118 92 134 118 94 133 120 94 129 118 91 127 117 88 
124 108 81 97 99 71 114 94 62 111 90 56 108 87 52 
103 83 47 102 85 55 100 87 64 96 87 66 96 84 67 
135 117 92 132 114 86 133 114 85 132 113 84 127 108 80 
125 110 81 125 110 82 123 104 75 119 100 70 111 93 63 
105 86 56 101 83 53 97 78 47 94 75 41 92 75 40 
116 0 0 136 118 92 135 117 90 128 110 82 124 106 77 
126 106 76 123 102 72 122 102 73 121 102 73 119 100 70 
112 93 62 105 86 54 98 79 46 93 74 41 92 72 40 
90 70 38 82 65 34 
