P3
75 50
255
72 118 140 110 123 144 115 130 149 121 138 156 129 145 162 
131 148 165 134 150 167 136 152 169 137 153 169 139 155 171 
143 157 173 147 161 175 152 164 177 159 168 178 32 175 182 
184 182 185 194 188 187 201 193 189 205 195 189 207 196 191 
209 198 191 210 196 189 210 195 186 209 192 184 209 193 184 
210 196 187 211 198 190 211 198 191 209 198 192 206 197 194 
201 194 192 197 191 192 194 190 192 194 190 194 194 190 194 
194 191 195 194 190 194 192 189 192 189 186 190 184 182 188 
178 177 185 170 170 180 164 164 175 161 163 175 32 157 171 
149 149 165 141 141 158 134 134 153 127 127 148 127 130 152 
130 136 157 133 141 161 135 145 165 137 148 168 135 148 169 
134 148 167 133 146 166 131 146 166 130 145 166 130 144 165 
129 143 164 127 141 161 127 139 160 129 138 159 133 139 158 
135 138 156 137 137 153 140 137 152 144 139 150 146 139 149 
149 139 147 150 137 145 148 135 142 146 132 137 142 128 133 
123 134 149 126 140 153 32 143 156 129 143 156 130 145 158 
134 148 161 143 156 167 148 160 170 154 164 172 159 166 173 
172 174 177 182 180 180 189 184 181 196 188 181 201 190 181 
204 192 182 207 194 184 32 194 185 207 194 184 206 194 184 
205 194 185 205 195 186 204 195 188 201 194 188 198 192 188 
195 190 188 192 189 189 190 188 188 187 186 187 185 184 186 
183 181 184 181 178 181 181 179 181 183 181 183 185 182 184 
186 182 183 187 183 183 187 181 181 185 179 179 181 176 179 
175 171 176 171 170 175 169 170 177 168 172 181 167 173 182 
166 172 181 160 166 176 149 152 164 150 153 165 153 157 168 
153 157 169 151 156 169 149 154 168 149 155 168 148 156 168 
148 156 169 151 157 168 154 158 167 158 160 167 161 161 168 
164 162 167 169 164 166 175 167 166 178 167 165 179 167 164 
177 165 161 176 163 159 175 161 157 174 160 155 172 157 152 
171 155 149 170 153 146 166 149 142 160 142 137 153 136 132 
129 127 136 129 127 134 134 133 139 134 135 141 136 140 147 
144 147 153 161 161 162 179 175 172 186 180 173 192 184 176 
199 189 178 203 191 179 204 192 179 202 191 179 201 191 180 
201 192 182 200 193 183 197 192 184 195 192 184 195 192 186 
193 193 188 191 192 189 191 192 188 191 192 189 191 192 189 
192 192 189 191 192 189 192 192 189 192 192 188 191 191 188 
190 190 186 105 188 186 189 187 186 188 187 185 189 187 185 
189 186 184 188 186 182 188 185 182 188 185 182 187 185 181 
187 185 182 187 185 183 185 185 183 185 185 185 184 186 185 
184 185 183 181 180 179 182 179 178 186 184 182 186 185 182 
186 184 182 187 184 180 187 184 180 190 185 180 192 186 180 
193 186 179 193 185 178 192 183 175 192 182 174 189 180 171 
188 178 170 188 177 168 188 176 166 189 175 165 189 174 162 
184 169 159 181 167 157 180 164 154 176 160 152 173 156 148 
170 154 146 167 150 142 156 142 137 147 136 133 144 131 128 
152 145 143 157 151 146 163 157 151 167 159 151 170 160 152 
167 155 148 175 162 152 191 178 164 198 186 172 199 188 174 
198 188 175 197 188 175 198 189 177 197 190 179 195 190 179 
193 190 181 190 190 182 190 189 183 189 190 184 189 191 185 
191 192 186 192 193 187 195 195 187 197 195 187 199 196 188 
199 197 187 199 196 187 196 191 182 193 186 176 195 189 179 
195 190 180 193 186 177 192 186 176 190 184 173 194 187 176 
197 189 178 197 189 178 199 190 178 204 194 181 207 196 183 
210 198 184 213 200 185 215 202 186 216 202 186 217 203 187 
218 204 187 219 204 187 218 203 186 217 202 185 217 201 184 
215 200 183 214 199 182 215 199 181 214 198 180 210 194 176 
207 191 173 210 194 177 209 193 176 208 192 175 202 188 172 
198 184 169 197 183 168 195 181 166 192 178 164 187 174 162 
180 170 159 178 168 157 176 165 155 173 162 153 171 160 151 
168 156 148 166 154 146 164 152 143 159 147 139 153 143 134 
167 159 149 170 160 148 178 165 150 184 171 155 186 173 157 
185 173 157 187 174 158 179 167 152 177 165 150 182 171 156 
186 175 161 187 176 161 187 177 162 190 178 163 194 183 167 
197 186 171 196 188 172 196 189 174 197 191 177 197 193 180 
197 193 180 198 194 180 200 195 182 199 194 180 114 194 179 
202 196 181 202 195 180 204 195 179 206 197 180 209 200 183 
208 199 181 206 195 177 207 194 176 208 193 175 210 196 177 
212 199 180 215 201 182 217 201 181 217 201 181 218 201 181 
217 201 180 219 202 181 219 202 180 221 203 181 220 202 180 
219 201 179 218 200 178 217 199 177 214 197 176 213 196 176 
213 197 176 210 195 173 210 193 172 209 192 171 209 192 170 
208 191 169 108 189 168 205 188 167 204 186 165 204 185 164 
200 182 162 199 181 161 199 180 160 196 178 159 194 176 157 
192 174 155 190 172 153 187 169 151 184 166 148 181 164 146 
178 161 143 176 158 141 173 155 138 170 151 134 165 147 130 
166 148 134 117 155 139 174 157 142 172 155 140 170 154 138 
168 151 137 164 147 134 159 143 132 158 140 132 157 139 131 
159 139 131 172 152 139 179 158 142 177 155 139 180 158 141 
183 160 143 187 166 149 186 166 149 179 157 141 179 159 143 
175 153 138 169 146 134 168 144 132 167 141 129 164 135 123 
164 135 124 175 143 125 179 142 122 187 147 122 192 151 122 
195 151 121 196 149 116 197 147 113 196 145 112 194 145 111 
190 143 114 195 152 121 211 172 137 221 183 147 224 188 152 
226 190 153 229 193 155 229 195 160 228 197 163 230 200 167 
230 201 169 227 199 168 226 198 168 225 197 167 223 197 168 
222 197 169 220 197 169 218 195 167 10 194 166 101 191 164 
212 189 162 211 188 160 210 186 158 210 185 158 209 184 156 
208 182 155 207 181 154 108 178 152 202 176 151 201 175 149 
199 172 147 198 171 145 196 169 143 194 167 141 191 164 139 
188 161 136 185 158 133 181 153 129 175 148 124 169 143 119 
126 103 105 132 109 109 136 113 110 138 114 112 138 114 112 
139 115 113 139 114 114 136 113 113 132 110 113 129 107 113 
129 108 114 131 109 114 136 113 115 141 117 116 146 120 117 
148 120 116 145 116 114 145 116 113 148 115 111 152 115 108 
154 114 107 153 112 105 154 112 104 161 114 103 165 116 102 
167 115 101 172 118 100 176 120 99 185 128 100 192 133 102 
196 137 102 203 144 105 212 152 109 220 161 114 222 162 113 
223 160 111 218 153 104 218 153 104 222 160 109 226 166 114 
227 167 116 227 169 117 229 172 121 224 167 116 224 170 120 
226 173 124 223 170 123 220 169 122 223 172 127 101 174 129 
223 176 133 222 177 134 218 175 135 219 178 138 220 180 140 
221 182 143 220 182 144 219 183 146 217 181 146 214 179 143 
211 176 140 10 173 139 207 172 139 207 172 138 207 171 138 
205 171 137 74 169 136 203 167 133 202 166 132 200 164 130 
101 161 128 194 158 124 190 154 121 186 150 117 181 145 111 
110 89 103 112 92 103 117 95 106 119 95 106 121 96 105 
123 98 106 126 99 106 126 99 108 127 99 107 127 99 108 
128 99 108 134 101 108 141 105 106 147 108 106 149 109 106 
105 111 105 158 114 105 163 116 105 170 120 106 179 125 106 
187 131 106 193 136 108 195 137 107 194 134 105 194 133 103 
108 132 102 197 134 101 200 137 101 208 142 101 216 148 102 
220 152 103 224 155 102 229 159 102 231 160 102 233 160 101 
235 164 103 240 166 101 237 162 96 234 158 94 232 156 95 
227 151 93 230 157 98 233 162 102 239 172 110 244 180 117 
246 184 123 245 182 120 241 178 119 242 181 122 244 185 127 
244 187 131 243 185 130 237 179 124 233 174 120 227 169 117 
230 174 122 101 176 124 229 172 122 225 168 119 220 164 116 
218 164 119 217 165 120 219 169 124 223 174 129 223 175 130 
224 177 132 224 177 133 223 176 131 220 173 129 216 169 126 
10 165 122 212 165 121 212 165 121 209 162 117 206 157 112 
137 99 100 141 103 100 150 108 102 162 115 104 174 123 107 
186 132 109 164 116 92 161 110 87 208 149 116 212 152 116 
215 154 118 219 157 119 224 162 120 231 167 122 104 173 125 
239 177 126 242 180 129 246 185 131 247 187 133 247 188 133 
248 190 134 249 193 135 250 195 136 250 193 134 250 190 129 
251 189 126 250 188 124 250 185 120 251 184 117 253 189 118 
253 190 116 253 192 116 253 196 116 104 200 118 254 197 115 
253 197 113 254 204 119 254 204 118 254 199 113 252 191 107 
248 177 98 244 166 91 240 157 88 236 152 85 235 151 85 
229 147 85 224 144 86 219 140 86 212 136 86 215 141 91 
219 148 96 223 155 102 222 154 102 217 150 101 215 149 101 
217 155 106 219 158 110 214 153 107 209 148 105 207 148 106 
212 153 109 214 157 112 213 156 110 214 156 110 212 155 110 
32 162 115 218 164 118 216 162 116 217 164 117 216 162 115 
213 161 114 110 161 115 101 163 117 210 161 115 205 157 111 
206 145 109 213 150 111 221 156 114 228 162 115 236 168 117 
242 174 121 160 116 73 108 91 57 251 190 129 145 109 63 
171 125 78 180 135 83 187 140 87 238 184 124 253 201 143 
254 202 145 254 203 145 255 205 146 255 206 147 255 207 149 
255 209 150 255 211 152 255 214 153 255 217 155 255 220 157 
254 221 157 255 223 158 255 224 158 254 221 153 254 227 159 
255 229 160 255 232 162 255 235 166 255 237 170 255 240 174 
255 242 177 254 243 180 254 243 180 254 243 177 255 240 171 
255 237 165 255 232 157 255 228 150 255 224 148 255 219 143 
254 214 139 254 209 134 253 202 131 237 170 93 249 192 125 
248 186 120 246 179 115 244 175 111 241 170 109 238 166 108 
233 162 107 229 158 105 225 155 104 221 152 102 220 150 102 
217 148 101 213 145 100 209 141 98 204 138 97 199 134 96 
197 133 95 195 132 95 194 131 94 191 130 94 190 130 94 
189 130 94 184 127 93 179 125 92 173 121 90 167 119 88 
217 158 111 221 161 112 228 167 116 219 161 110 226 167 114 
211 157 104 118 89 54 146 96 61 188 139 88 61 49 30 
33 29 21 59 44 27 81 56 32 170 116 68 254 195 131 
254 197 132 254 199 134 244 189 125 210 162 103 225 173 110 
254 206 138 255 210 140 254 210 139 217 173 105 179 137 76 
246 205 130 224 181 106 252 214 136 162 109 42 251 215 132 
255 233 153 255 237 156 255 239 160 255 241 165 255 244 170 
255 247 174 255 248 178 255 249 184 255 249 183 255 245 172 
255 240 165 255 235 157 255 231 152 254 226 149 254 223 146 
254 220 145 255 218 143 254 212 138 177 127 65 254 207 137 
255 206 137 255 203 134 254 198 130 254 193 126 252 189 122 
250 187 123 249 186 123 246 182 121 243 179 118 240 176 116 
238 171 112 234 166 107 231 161 104 226 156 102 222 151 100 
216 146 99 211 142 97 207 138 96 201 134 94 195 130 93 
189 126 91 184 123 89 180 120 88 174 117 86 169 113 84 
71 50 36 78 53 39 159 110 76 77 61 46 33 38 37 
21 26 20 27 26 20 38 30 27 66 52 38 9 12 15 
15 18 23 29 25 31 52 35 32 83 56 43 159 115 78 
118 92 72 141 103 71 105 80 58 48 42 51 38 35 48 
97 73 59 158 117 81 122 89 47 60 42 22 41 27 19 
84 63 46 39 37 41 76 56 41 45 30 20 141 98 46 
233 182 95 237 194 102 32 184 95 251 218 121 240 205 108 
254 233 137 253 227 127 233 202 107 243 217 118 254 239 143 
114 239 144 254 231 131 254 226 127 254 222 126 254 215 122 
254 207 116 32 202 114 253 189 104 84 53 29 253 187 107 
254 188 110 255 185 108 111 180 106 251 177 105 251 176 105 
235 163 98 226 158 96 244 170 106 243 170 106 239 165 104 
238 165 104 236 162 103 233 160 101 230 156 101 228 154 100 
225 152 100 222 150 99 219 147 98 216 145 96 213 142 95 
208 139 94 202 134 91 195 128 88 187 122 86 180 116 83 
9 8 14 8 8 14 15 16 25 12 20 24 12 20 26 
10 18 20 10 15 17 12 16 24 11 15 24 13 22 35 
16 32 56 18 33 54 22 39 67 19 33 57 20 39 68 
18 41 72 19 35 64 22 44 77 19 37 64 21 40 70 
21 44 77 21 42 71 22 28 35 14 16 17 115 12 17 
22 27 38 26 34 49 24 33 49 13 15 22 19 17 19 
35 29 25 36 32 40 34 38 55 57 48 51 43 32 33 
95 64 29 91 56 24 72 43 26 102 70 29 124 92 42 
132 89 36 128 79 29 150 91 34 135 89 35 166 108 43 
166 93 33 188 120 53 192 120 54 60 38 29 131 88 53 
138 92 54 97 108 56 102 68 49 77 55 43 73 49 30 
35 29 22 32 27 21 63 46 31 132 87 51 124 78 47 
130 85 51 199 128 79 190 121 75 189 119 75 178 112 71 
100 122 79 198 124 81 211 132 88 211 132 88 115 129 87 
197 123 84 200 124 85 197 121 84 194 118 81 190 115 79 
10 13 20 9 12 18 10 14 24 10 18 22 8 14 21 
10 16 22 10 16 20 7 9 14 8 9 14 9 18 28 
8 12 19 12 18 29 14 27 46 10 16 26 17 30 51 
11 17 27 12 18 29 14 23 38 12 19 29 16 28 48 
14 28 46 13 24 38 12 17 25 11 12 16 10 11 16 
14 17 26 13 16 24 15 17 25 13 16 23 12 12 17 
14 14 18 17 16 21 19 21 29 23 26 38 22 25 37 
16 14 18 17 17 22 25 29 47 20 20 26 19 20 30 
23 26 40 20 21 30 18 17 22 16 15 18 21 19 18 
29 20 19 25 18 19 19 15 17 15 14 20 17 18 23 
16 17 24 19 18 22 18 18 22 18 23 24 12 14 18 
11 14 19 11 14 18 11 13 18 26 23 23 27 21 22 
22 19 22 22 20 20 17 20 21 25 23 23 19 20 21 
30 26 24 25 22 22 65 43 35 78 50 39 64 44 36 
69 46 39 100 64 50 111 69 53 120 74 57 119 74 56 
15 25 42 14 26 41 14 24 37 11 18 26 11 18 26 
12 19 29 13 17 25 11 14 21 12 15 23 11 15 22 
9 12 18 11 14 20 10 13 19 10 14 20 12 17 23 
11 15 19 11 14 19 11 13 17 10 13 16 10 13 18 
10 14 19 11 16 23 13 17 25 13 15 23 12 14 19 
11 12 18 13 13 19 13 14 20 13 14 19 13 13 19 
13 14 19 14 14 19 15 15 20 15 14 20 97 0 0 
15 14 18 15 15 19 18 19 27 17 16 20 15 15 19 
15 15 19 15 15 19 14 15 19 14 13 19 14 14 19 
14 14 19 14 14 18 13 13 18 14 13 19 12 13 18 
12 12 17 12 13 18 12 12 18 12 14 19 11 13 18 
10 11 17 10 11 16 10 10 16 9 11 16 10 11 17 
12 12 18 12 13 19 105 12 17 12 13 18 12 15 19 
12 16 21 11 14 19 12 15 20 12 15 21 12 16 20 
11 16 20 12 16 20 15 16 21 16 17 22 15 18 22 
33 34 43 35 35 45 101 38 46 37 38 45 40 40 46 
40 41 45 97 40 46 39 40 47 46 44 51 42 43 51 
44 44 52 46 45 54 48 47 53 52 49 54 59 53 54 
61 54 54 62 55 55 61 54 54 58 52 53 63 56 58 
63 55 56 67 60 60 68 59 59 63 58 63 60 55 56 
67 58 59 67 58 57 70 60 60 62 54 55 78 63 59 
86 67 59 84 66 59 83 65 58 87 67 58 90 68 57 
91 69 57 93 69 57 90 68 56 91 68 56 90 68 55 
89 66 54 82 63 53 79 61 51 78 60 52 78 61 53 
75 59 52 72 57 51 65 52 49 54 45 44 63 51 47 
61 50 46 58 48 45 57 46 44 52 44 43 46 40 40 
43 38 40 41 36 38 38 34 34 38 33 34 36 32 34 
34 31 33 31 28 29 29 27 29 28 26 28 27 26 32 
25 24 28 21 21 25 19 20 23 17 17 21 17 18 21 
16 17 21 14 15 20 13 15 20 13 14 20 12 14 20 
129 116 125 132 122 130 138 128 136 137 129 136 143 125 126 
148 130 129 139 130 135 141 134 138 159 143 139 147 139 140 
145 134 135 149 138 140 155 144 143 164 149 145 180 161 150 
183 165 155 181 164 155 187 166 154 178 158 147 182 163 151 
189 167 155 197 169 152 196 170 153 111 159 145 185 158 141 
202 169 146 197 165 143 198 163 139 188 148 121 215 165 128 
224 173 135 232 179 137 233 182 143 238 186 144 239 184 138 
246 191 139 248 193 141 248 191 141 250 194 141 251 193 138 
248 188 135 241 183 133 240 182 133 238 181 132 240 179 125 
237 178 126 232 176 130 221 168 125 191 145 108 222 167 121 
220 167 124 218 164 121 214 162 123 102 156 117 198 150 114 
191 145 110 102 140 106 191 146 113 195 148 115 190 146 117 
189 146 116 190 146 117 187 144 115 184 140 112 181 138 110 
180 136 109 173 130 103 175 131 106 171 129 104 167 126 103 
162 122 100 160 121 99 156 118 97 150 113 92 143 107 89 
130 125 137 129 130 143 131 125 136 142 132 135 146 133 134 
146 133 134 136 132 139 110 133 141 149 145 150 146 146 153 
137 137 146 143 139 145 148 136 136 169 154 149 176 160 154 
176 157 150 178 160 151 186 166 154 186 162 146 188 170 158 
193 172 158 195 173 158 202 173 154 195 166 145 198 163 138 
201 168 146 202 168 145 207 164 132 208 163 129 224 174 135 
229 182 146 32 181 147 229 184 151 243 191 146 242 191 145 
100 196 148 245 195 152 245 195 152 246 197 153 241 195 153 
239 192 152 240 187 144 227 183 147 234 182 140 231 181 140 
230 180 139 226 177 137 211 169 137 204 165 134 218 174 138 
218 176 143 100 171 141 210 168 135 207 166 135 203 167 140 
197 163 138 200 163 135 199 161 133 199 164 138 198 161 134 
195 159 133 195 157 131 187 154 132 188 155 132 187 156 134 
187 153 131 185 152 130 182 149 128 181 148 127 178 146 126 
171 142 125 169 139 123 169 138 120 165 135 118 161 132 114 
142 127 128 143 132 133 151 130 127 149 133 131 158 136 126 
167 136 118 140 115 103 134 115 110 165 143 131 110 142 131 
150 133 125 159 135 127 166 150 142 184 163 148 191 172 159 
194 174 159 191 171 157 188 169 157 180 166 159 183 172 164 
192 171 156 195 163 142 200 169 146 184 162 149 195 164 142 
196 169 149 184 157 136 195 152 119 199 157 125 214 173 141 
223 180 147 225 176 140 234 182 138 105 186 144 244 195 148 
245 196 149 250 197 146 249 199 151 246 193 144 248 197 140 
236 189 149 231 186 147 217 178 146 232 182 139 243 186 135 
224 180 145 223 169 123 218 165 121 199 164 133 210 164 127 
224 173 129 217 170 134 205 167 137 201 166 137 201 162 132 
201 166 137 200 162 132 195 161 133 198 161 135 192 158 136 
194 157 130 191 148 118 190 151 124 189 152 127 187 149 120 
187 152 124 186 145 117 184 151 130 183 150 128 178 141 118 
173 141 121 163 134 118 172 138 116 165 132 111 155 126 111 
124 119 130 124 123 133 143 136 138 155 141 138 150 135 131 
159 135 123 142 116 105 133 110 101 161 130 114 128 107 98 
130 100 83 151 108 81 163 121 93 163 135 117 185 153 132 
187 158 137 189 166 148 193 172 156 187 169 154 186 175 165 
110 178 168 184 170 162 171 158 153 175 158 149 179 158 146 
185 163 147 200 165 136 223 175 136 197 153 118 206 166 134 
232 186 148 242 187 139 98 171 113 246 186 132 240 186 135 
247 193 137 241 184 130 233 185 137 228 179 130 233 179 133 
239 195 154 235 194 155 233 185 145 231 184 143 232 186 145 
232 184 143 219 179 148 209 174 144 195 170 146 212 172 139 
212 171 140 213 165 127 209 164 128 212 170 137 204 156 118 
188 142 106 192 152 119 202 165 136 193 158 131 189 161 140 
184 154 134 186 155 133 188 154 130 191 142 107 183 137 105 
180 133 100 171 120 86 183 132 97 181 138 108 175 132 102 
182 137 105 181 140 111 114 132 102 164 128 105 158 126 108 
135 112 107 146 125 117 152 130 121 154 131 120 147 128 118 
154 129 113 130 112 97 112 97 88 154 119 97 134 107 91 
122 99 87 140 110 91 141 109 90 150 112 88 179 133 101 
180 135 100 182 140 105 171 133 104 99 133 107 186 152 124 
196 159 131 187 156 132 191 160 134 189 150 120 196 149 116 
207 163 129 203 165 135 190 153 122 188 145 106 198 149 104 
99 172 118 236 177 122 234 173 122 237 190 145 227 179 140 
237 191 147 247 204 156 246 193 144 250 198 147 247 193 132 
241 196 141 233 182 131 230 179 135 226 174 128 241 185 133 
227 181 139 204 174 145 199 167 139 184 157 131 209 180 152 
210 181 155 204 171 143 209 171 140 203 167 138 196 167 143 
199 171 146 202 169 141 204 163 131 200 157 125 200 156 124 
193 151 119 195 153 121 195 149 116 189 140 106 187 141 108 
186 146 116 182 148 124 182 143 117 180 140 112 164 132 110 
180 142 117 178 137 107 180 138 108 171 135 109 163 127 103 
112 84 74 105 79 67 99 73 64 117 83 68 145 106 84 
143 103 80 115 83 63 76 54 48 139 99 76 106 79 66 
90 72 62 98 81 70 109 94 81 150 121 99 180 147 122 
172 147 128 187 162 140 196 171 150 183 158 136 174 149 129 
174 144 118 188 145 109 83 129 84 166 115 66 142 98 54 
179 126 77 163 117 75 208 151 95 160 108 63 195 133 77 
231 164 96 252 199 127 247 196 128 238 182 121 239 176 116 
242 177 115 245 184 122 228 175 126 238 186 137 238 183 135 
228 173 127 231 179 134 227 180 138 225 184 145 227 185 147 
234 188 146 226 172 126 214 162 117 217 168 127 212 167 131 
210 171 138 119 169 135 208 163 125 191 145 109 105 146 112 
178 135 99 164 122 88 151 110 78 165 122 88 191 146 111 
183 147 117 188 154 128 189 157 132 191 160 134 190 161 137 
185 155 134 180 151 132 178 150 130 178 146 122 185 145 114 
180 133 101 175 130 102 173 135 109 168 134 109 159 128 107 
123 95 82 132 100 86 125 94 85 142 105 91 143 105 87 
139 102 82 142 103 78 80 59 48 142 99 79 152 108 81 
110 81 67 128 94 73 152 110 83 179 129 96 173 126 98 
175 127 101 202 153 118 184 150 125 168 143 124 173 148 129 
111 154 132 176 141 116 200 151 117 213 167 128 188 152 118 
182 141 108 160 116 86 179 126 86 187 130 83 217 154 96 
214 144 84 229 159 94 248 181 106 249 186 105 247 187 104 
243 184 102 226 179 103 223 191 118 242 201 124 248 194 119 
239 170 96 232 166 100 240 181 123 236 177 123 236 175 118 
231 163 100 32 155 95 212 146 94 184 135 93 210 161 117 
213 169 130 209 170 135 194 162 135 185 162 141 191 167 147 
177 153 132 173 146 124 181 150 126 110 145 120 176 142 112 
170 131 100 189 141 104 186 146 116 181 148 125 160 134 116 
167 141 123 163 145 133 148 137 132 143 129 124 158 137 121 
168 140 118 172 137 113 171 134 108 160 128 107 146 122 104 
154 115 99 157 118 99 97 125 104 164 122 102 160 118 98 
153 115 95 133 106 91 33 85 78 148 111 92 129 95 77 
122 85 61 110 78 56 112 78 56 135 95 69 157 118 90 
170 136 109 179 150 126 179 155 134 174 150 128 105 135 114 
157 133 113 165 136 113 177 142 112 200 160 122 179 143 111 
185 143 110 190 145 113 205 158 122 203 158 122 206 160 122 
32 157 121 194 153 119 197 159 126 202 166 132 212 178 141 
215 178 137 223 175 126 238 188 127 251 207 139 250 207 139 
242 191 128 233 182 125 219 169 120 211 167 125 203 164 128 
196 161 128 176 148 125 163 143 127 141 130 120 166 145 129 
169 146 124 180 150 123 170 143 119 166 142 120 163 140 120 
155 137 121 156 139 124 159 139 125 157 138 125 154 135 121 
157 136 119 185 156 133 105 159 135 181 157 137 176 154 136 
168 147 133 163 143 132 155 136 127 147 131 125 148 134 127 
158 141 128 162 142 126 170 143 121 170 136 111 149 114 94 
127 118 123 130 121 121 132 121 121 142 126 123 156 140 131 
153 139 131 145 135 128 138 132 127 165 151 140 164 152 145 
151 143 143 150 144 144 158 150 148 173 164 157 181 173 165 
176 173 168 178 174 165 180 171 160 169 158 148 165 148 138 
185 160 143 200 175 152 206 180 155 197 173 149 185 159 137 
191 163 140 191 163 140 188 164 141 187 159 136 191 158 131 
193 152 120 199 148 109 221 177 130 230 206 157 230 212 162 
233 202 153 226 180 133 212 181 144 205 183 155 194 181 160 
185 175 158 186 172 154 187 170 149 184 167 148 188 170 149 
197 172 146 203 175 148 201 175 148 196 171 147 198 175 150 
197 176 153 195 179 158 195 180 161 191 176 158 188 174 155 
190 175 156 187 173 154 189 172 153 188 168 147 187 163 140 
188 158 131 190 154 124 192 152 120 181 143 112 177 144 116 
173 143 119 170 141 120 117 136 121 156 129 112 152 118 97 
163 126 100 164 129 104 153 121 98 148 115 93 148 114 91 
140 130 129 142 133 127 141 130 124 148 135 126 157 144 135 
160 149 138 153 141 132 142 130 127 155 138 130 153 140 127 
110 137 124 168 147 133 155 137 129 161 143 132 162 147 135 
173 160 147 176 167 155 175 170 159 173 166 156 171 163 153 
170 160 150 174 161 149 178 167 154 115 167 155 179 169 157 
184 174 161 187 176 164 190 176 164 195 180 166 98 178 165 
184 173 165 170 164 161 165 161 161 162 159 159 161 159 160 
161 156 156 168 159 154 181 170 160 184 177 168 169 169 163 
168 166 158 171 167 159 173 167 158 177 164 151 182 168 155 
173 164 155 167 160 153 163 161 155 157 158 155 151 155 156 
151 154 153 153 155 154 161 162 158 166 164 158 170 167 159 
173 168 159 169 163 154 167 160 150 168 160 150 173 162 150 
176 164 151 173 162 150 171 159 149 163 152 145 148 144 141 
142 139 139 141 137 138 138 134 136 134 130 132 133 127 130 
104 124 125 127 121 125 125 120 124 140 130 124 140 130 122 
131 122 124 128 123 124 132 124 126 143 131 125 144 132 125 
151 138 129 140 126 121 129 116 111 101 131 119 139 118 112 
142 122 110 139 123 111 152 129 113 182 152 128 174 148 130 
157 141 130 173 164 151 176 172 163 174 173 166 178 173 165 
174 171 165 167 167 165 172 172 169 178 174 168 179 174 168 
181 176 170 183 177 170 191 181 172 184 177 169 182 175 169 
188 179 170 176 170 163 178 169 159 184 165 147 190 168 147 
184 167 146 183 166 145 188 175 155 187 181 164 179 175 162 
169 169 160 159 162 159 152 158 158 148 153 154 155 154 152 
155 152 149 156 152 148 167 158 150 173 160 150 163 154 145 
169 157 146 186 170 152 192 172 151 189 166 143 184 156 131 
186 156 131 184 152 124 177 145 118 185 149 119 154 126 104 
161 135 113 169 142 120 171 144 120 176 145 119 178 142 114 
180 142 114 165 129 102 160 123 99 168 127 101 150 115 92 
134 108 87 149 116 90 156 118 89 143 105 82 134 98 75 
118 119 130 104 126 134 118 122 132 120 122 132 117 125 137 
115 125 138 115 127 142 112 127 146 102 117 139 32 119 139 
116 127 143 129 140 152 133 143 155 144 150 159 173 167 161 
175 167 158 170 161 149 159 144 131 144 120 110 157 123 105 
164 129 106 175 144 118 171 141 115 177 142 115 182 146 118 
180 140 113 186 146 115 190 150 117 192 152 114 205 160 121 
217 169 126 210 165 125 205 172 137 204 180 149 208 186 157 
211 183 155 205 174 147 196 168 143 202 175 150 197 172 148 
193 168 143 195 167 141 101 175 147 206 178 150 201 175 149 
200 176 151 199 175 149 190 168 145 179 160 141 173 156 140 
172 157 143 171 156 143 117 154 139 173 153 136 181 157 137 
183 155 132 180 152 130 166 142 124 164 141 124 170 143 125 
167 138 120 164 137 118 165 138 117 160 135 114 161 134 113 
160 132 110 159 129 106 133 108 89 66 115 91 159 123 96 
164 128 101 156 124 100 143 115 96 148 120 101 148 121 104 
90 101 124 97 108 129 103 116 136 109 123 142 118 129 143 
130 137 146 130 137 147 134 137 144 146 144 145 148 146 145 
154 151 147 150 141 138 165 150 140 171 158 146 168 158 149 
172 165 155 166 157 149 177 162 150 185 167 152 180 166 153 
180 163 149 176 161 148 153 141 131 152 137 126 191 162 139 
194 161 135 185 154 133 172 151 135 178 170 156 175 172 162 
178 174 165 179 172 160 179 168 155 182 166 151 181 161 142 
180 160 140 179 158 139 115 35 5 189 170 149 195 174 152 
195 167 142 194 167 141 197 170 141 202 173 140 191 161 129 
187 158 128 179 151 121 180 150 122 176 148 122 197 164 134 
203 170 138 197 165 137 192 164 139 180 157 136 177 158 142 
169 158 147 153 151 150 148 148 149 139 141 145 138 140 144 
140 139 144 137 136 141 128 131 139 118 125 136 120 125 136 
125 127 135 128 127 134 132 129 133 134 128 130 133 126 126 
134 124 123 139 125 121 136 121 116 130 116 110 132 117 109 
122 116 125 120 117 125 129 123 128 130 127 131 132 131 134 
131 132 140 133 139 146 132 141 150 128 138 149 121 135 149 
10 133 148 112 123 141 111 123 139 112 125 142 113 125 140 
129 140 153 135 146 159 143 149 157 150 152 157 159 161 162 
171 170 167 175 174 168 171 170 164 171 159 150 182 161 145 
169 153 141 172 164 155 176 173 164 176 161 147 180 147 123 
193 148 116 210 165 123 215 172 128 214 176 132 207 181 143 
200 173 140 101 172 143 197 169 139 202 171 141 207 176 145 
207 175 144 199 168 140 196 167 143 192 166 144 189 171 155 
173 162 154 168 157 150 163 150 144 158 146 140 162 148 141 
165 154 148 155 149 147 150 148 149 136 140 148 132 138 148 
136 139 147 131 135 144 130 133 142 127 130 140 127 130 140 
126 130 141 124 129 139 130 133 140 134 133 139 128 129 137 
130 129 136 126 124 134 101 108 127 96 103 123 101 104 120 
94 99 117 88 95 115 90 96 115 91 96 114 89 95 112 
101 105 127 101 111 129 104 115 134 108 119 138 108 119 139 
113 122 140 119 127 143 120 130 146 117 130 148 113 128 149 
110 127 149 109 126 149 107 126 148 104 121 145 109 125 146 
105 125 148 112 128 148 120 133 151 124 137 154 126 137 152 
115 126 141 131 140 151 136 139 145 133 138 146 141 147 155 
151 149 149 147 140 137 141 135 134 137 128 126 149 132 123 
177 153 134 191 161 138 189 158 134 206 173 140 222 186 146 
226 188 142 220 188 140 220 199 153 217 193 149 214 177 139 
101 172 143 193 169 147 182 171 159 170 167 161 168 165 159 
167 161 155 152 150 150 152 152 153 148 150 153 144 146 151 
134 138 146 129 134 145 128 134 145 131 137 147 138 141 149 
138 141 149 144 144 148 152 149 148 150 148 146 149 147 146 
151 148 145 149 145 144 144 142 142 138 136 139 130 129 136 
123 123 132 111 113 128 94 101 121 82 93 115 73 84 108 
68 80 104 66 79 104 65 77 101 63 73 97 64 73 95 
42 51 74 49 58 80 54 64 88 74 83 107 74 85 106 
85 93 114 97 101 119 114 97 110 119 117 128 131 126 132 
125 123 132 135 126 130 139 134 137 140 135 139 153 145 143 
148 142 143 152 149 149 152 150 151 145 150 156 152 156 160 
146 148 155 138 145 157 125 137 153 130 140 154 120 133 151 
114 127 146 121 135 153 121 134 150 121 132 149 118 130 147 
101 118 142 86 110 139 86 108 136 86 103 127 91 105 126 
97 106 121 94 107 126 110 123 141 132 139 151 135 142 153 
123 130 141 113 123 140 119 131 148 108 149 156 157 157 158 
160 158 156 158 155 152 114 161 155 162 159 156 157 155 153 
160 156 153 163 159 155 160 158 153 157 155 151 150 151 151 
149 151 152 146 146 149 131 136 145 139 138 145 126 127 140 
111 118 134 101 109 127 105 110 127 99 106 126 90 99 121 
86 94 116 82 92 114 87 95 116 95 99 118 101 101 118 
93 96 116 82 88 108 76 82 103 66 77 99 99 71 94 
44 52 74 50 58 80 50 59 81 46 51 70 57 63 79 
43 47 64 51 55 69 66 75 95 62 71 93 62 74 97 
49 57 74 59 66 84 61 63 76 70 77 96 84 87 103 
93 100 117 96 103 122 98 104 122 102 107 122 106 111 125 
101 111 130 115 120 135 129 131 142 121 128 141 123 130 145 
113 125 143 104 117 138 107 122 144 102 122 148 113 128 149 
122 135 152 130 135 147 138 143 154 143 147 156 139 134 137 
130 130 137 126 129 140 126 134 145 130 137 148 109 130 141 
131 126 129 145 129 124 150 140 138 151 149 151 141 142 147 
140 141 148 152 148 153 154 150 152 160 156 156 145 146 151 
135 140 149 138 141 151 139 141 151 97 140 149 139 140 149 
134 138 148 131 136 146 135 139 147 135 137 144 127 130 139 
111 118 134 107 113 131 99 107 125 91 100 120 87 97 119 
92 100 121 94 101 121 92 101 124 99 106 125 94 100 119 
98 101 116 93 99 115 93 98 116 97 99 116 98 98 113 
44 50 68 31 38 53 25 30 43 18 23 36 25 26 36 
30 34 50 22 27 40 21 24 34 26 28 40 31 36 49 
46 50 65 49 48 55 33 36 45 54 57 71 54 58 73 
56 59 72 54 56 69 57 60 73 39 47 61 51 58 75 
60 71 92 50 62 81 49 63 85 58 74 99 76 92 118 
80 93 118 82 102 132 74 92 118 85 100 125 84 106 134 
82 102 130 89 105 129 90 110 136 88 108 135 96 111 135 
100 115 137 112 125 144 32 135 151 112 125 146 127 133 148 
122 131 146 106 117 135 112 121 141 117 126 144 125 126 138 
125 122 128 119 121 131 121 124 135 124 123 130 128 125 129 
101 124 129 128 125 129 141 138 141 137 141 150 134 139 149 
135 137 147 131 133 145 129 132 144 130 133 145 114 133 144 
135 136 143 141 139 141 145 139 138 138 135 137 134 130 134 
126 124 132 120 119 132 122 120 132 105 116 131 110 112 126 
118 116 127 131 122 124 98 127 123 137 122 118 129 116 114 
63 67 88 77 77 92 81 76 85 80 75 86 68 73 88 
65 71 87 114 59 78 33 41 53 27 31 40 28 29 37 
21 24 34 26 25 30 36 38 50 31 37 51 26 31 42 
23 23 32 23 25 35 37 36 47 47 51 64 48 48 59 
49 51 66 65 67 81 115 71 86 65 68 83 58 62 76 
65 66 80 47 49 64 75 77 89 72 83 106 72 84 106 
82 87 101 73 86 109 80 91 114 84 105 133 95 111 135 
93 108 133 89 104 126 72 94 125 77 100 131 77 101 132 
84 105 133 92 109 135 88 107 134 83 104 132 97 113 139 
99 115 139 85 105 133 87 104 130 83 98 121 86 99 121 
96 105 123 103 113 131 103 112 132 101 111 129 108 117 134 
114 122 138 112 119 133 99 107 123 92 102 123 104 111 130 
122 124 138 117 120 134 105 111 129 109 114 130 117 117 127 
134 128 131 146 138 135 147 138 133 131 126 129 118 118 127 
114 114 126 112 111 126 105 106 122 105 105 120 111 107 117 
95 80 86 69 65 75 81 73 84 79 76 89 91 81 86 
98 84 84 85 75 80 94 79 80 77 73 80 78 77 85 
79 86 103 63 70 83 54 60 71 46 58 77 43 52 66 
30 34 44 30 32 44 26 30 42 25 30 43 24 26 39 
24 27 39 22 27 40 23 27 40 31 35 49 34 39 53 
36 41 56 35 36 50 39 43 57 48 48 58 47 47 59 
55 51 61 51 49 60 48 52 66 63 72 93 68 80 100 
67 73 90 56 68 91 85 86 101 66 83 111 65 84 116 
75 94 123 79 97 125 88 103 130 89 108 137 93 113 138 
101 116 138 101 114 137 91 107 131 91 107 132 92 107 132 
99 111 133 106 117 138 98 111 131 99 108 128 95 105 125 
97 106 128 102 109 129 110 113 128 118 118 130 118 121 136 
107 114 133 103 108 124 108 110 121 115 117 129 118 119 131 
106 109 124 93 99 121 93 101 122 98 104 122 107 108 120 
120 116 124 124 116 124 116 112 123 99 110 123 91 97 119 
44 46 58 45 41 51 86 79 89 98 90 97 62 61 74 
63 54 65 95 88 94 66 62 71 82 75 83 84 83 95 
91 83 88 101 96 104 76 70 75 97 91 98 84 78 88 
99 95 101 107 100 103 99 87 86 67 72 85 51 56 70 
47 54 69 40 51 68 32 40 57 28 38 56 26 31 44 
27 29 40 30 32 41 33 37 50 33 42 59 38 46 63 
37 42 56 28 31 42 40 38 48 37 38 49 41 40 51 
42 43 54 60 64 81 43 43 54 46 44 51 51 52 67 
52 57 74 73 82 101 72 78 98 90 95 114 102 111 132 
111 120 140 126 135 151 135 139 148 127 134 146 128 134 148 
119 125 142 112 120 139 103 114 137 103 114 136 101 109 129 
94 105 125 100 109 128 104 113 132 100 121 139 112 119 136 
106 109 125 73 119 134 114 117 132 112 115 132 117 119 134 
122 122 135 32 119 131 115 112 124 113 114 126 105 108 125 
95 101 118 82 91 113 78 86 109 80 85 107 89 90 108 
36 35 46 49 47 62 42 46 60 9 8 12 116 26 36 
47 46 59 58 58 70 44 54 69 57 49 57 83 77 83 
64 61 68 61 58 69 98 85 86 92 80 81 101 84 79 
76 66 67 147 116 97 134 117 109 134 109 100 112 91 84 
120 102 97 114 107 109 116 111 115 91 93 102 77 83 92 
58 69 85 49 55 68 38 47 62 32 40 56 30 38 52 
25 29 39 24 24 30 30 31 39 36 36 47 29 32 46 
31 33 48 30 34 50 27 30 43 35 36 46 38 40 51 
28 30 40 26 29 41 100 40 50 39 40 52 31 32 40 
29 31 39 66 60 66 92 89 101 46 104 114 106 88 84 
99 90 95 127 111 108 156 143 138 142 139 142 134 133 141 
129 134 145 124 130 143 112 120 137 104 112 130 101 111 132 
104 110 129 104 109 125 104 112 133 100 109 132 92 101 122 
95 104 126 103 107 126 94 100 123 90 99 123 93 101 126 
88 99 124 88 96 119 92 96 116 89 92 111 78 83 102 
50 48 63 50 48 61 39 39 51 32 32 43 35 33 45 
44 43 55 57 54 69 50 55 74 77 76 94 50 51 62 
55 50 59 106 88 87 138 106 94 146 114 97 81 71 72 
126 99 87 115 97 93 103 91 90 80 76 84 82 74 82 
102 89 89 103 93 92 120 97 88 130 101 81 119 93 78 
139 114 102 138 117 106 109 101 101 100 100 112 105 100 104 
83 87 98 55 63 81 43 48 62 32 36 48 29 36 50 
31 38 53 26 28 42 28 31 45 31 36 51 27 30 42 
35 39 54 29 30 40 36 37 48 27 29 39 30 32 43 
32 35 45 47 52 68 49 54 71 50 52 70 40 43 57 
30 36 51 23 27 37 104 32 39 57 55 63 92 82 84 
100 83 79 105 89 86 106 89 85 118 100 97 134 117 114 
139 127 126 131 122 123 126 118 125 122 119 128 124 121 131 
113 114 130 91 99 121 98 104 124 94 103 125 99 95 120 
73 85 113 72 84 112 71 82 111 66 76 104 67 79 106 
53 48 63 55 51 65 58 55 69 51 49 63 55 51 65 
52 48 63 48 43 55 60 55 66 66 61 75 62 60 76 
69 66 82 64 64 80 81 70 79 99 83 87 122 98 96 
96 86 91 67 61 70 120 99 98 97 86 90 84 78 83 
131 103 92 113 98 97 94 84 88 98 89 91 71 61 66 
77 72 82 124 117 119 118 113 117 109 106 117 146 132 128 
168 145 127 139 126 122 78 79 91 74 76 88 61 64 78 
81 87 103 67 75 93 52 62 84 55 65 83 43 52 69 
35 43 60 34 44 65 20 22 30 24 28 40 25 28 40 
31 29 37 26 25 32 19 19 26 22 21 27 31 30 39 
28 27 35 23 23 29 23 23 29 23 24 30 23 25 33 
24 26 34 21 23 30 18 20 27 20 23 33 21 22 31 
23 23 31 30 30 38 34 32 40 46 43 54 49 51 66 
48 51 71 48 56 81 52 62 89 61 73 101 59 71 98 
73 81 108 66 74 102 48 61 91 50 62 92 49 61 88 
56 50 64 55 49 62 54 50 64 58 52 66 59 53 67 
60 54 69 55 52 66 60 55 68 63 57 71 66 60 75 
58 52 64 66 60 76 69 62 77 60 58 73 58 55 70 
62 60 75 73 66 79 92 82 95 68 65 75 70 66 75 
64 59 66 58 63 77 55 55 72 57 54 64 73 66 68 
116 93 87 96 71 61 122 97 81 43 40 45 146 110 90 
158 115 80 215 160 102 215 169 114 124 104 92 167 139 120 
152 137 135 131 121 119 145 125 110 141 116 97 102 94 97 
83 88 104 83 88 109 75 82 96 97 57 67 37 42 56 
35 37 49 43 46 54 36 39 47 42 47 62 32 34 48 
19 20 26 18 17 23 21 21 28 20 19 24 22 22 29 
23 22 29 24 22 27 101 20 25 21 22 29 22 21 27 
20 20 26 19 19 25 17 19 26 20 20 28 19 20 27 
14 14 20 13 16 24 26 31 45 18 21 33 23 25 39 
25 30 46 33 40 61 39 51 76 40 51 79 40 52 80 
50 45 58 54 49 61 54 49 62 52 47 61 55 49 63 
56 50 63 56 51 64 61 55 69 63 56 71 65 59 73 
66 60 74 67 61 76 65 60 73 47 45 58 58 53 69 
54 50 62 51 48 63 57 57 71 69 63 79 79 70 82 
71 64 74 76 67 73 47 51 65 26 27 37 59 54 64 
69 61 68 35 32 40 52 53 68 24 24 33 44 77 76 
116 99 92 123 92 73 175 130 100 109 92 89 87 73 75 
134 106 93 110 100 101 101 104 95 151 117 91 175 141 118 
117 112 119 133 118 114 152 128 112 146 126 118 90 93 107 
103 104 113 107 106 114 108 110 120 78 90 113 35 47 67 
31 38 53 43 54 72 43 53 74 35 43 61 26 31 43 
24 28 43 21 25 37 20 21 28 17 18 24 18 17 21 
18 17 22 17 18 25 16 18 27 23 25 36 21 23 32 
19 22 32 19 21 33 17 19 27 17 17 25 18 18 25 
15 15 24 14 16 26 17 21 33 22 26 42 21 26 42 
44 40 51 44 41 52 53 47 60 57 49 63 56 49 63 
57 51 64 55 50 63 44 41 54 34 31 41 33 31 42 
117 52 63 63 57 69 55 53 66 31 33 43 47 42 53 
71 62 76 68 62 76 50 49 64 65 59 73 68 62 76 
58 54 68 66 58 71 76 66 81 54 52 66 56 53 64 
50 49 60 50 45 56 124 104 105 118 98 98 137 108 98 
178 133 108 153 116 96 190 137 107 155 120 102 109 99 103 
139 108 98 95 72 68 86 60 52 96 67 59 132 104 91 
179 145 114 161 122 94 141 110 97 120 96 89 119 105 104 
142 123 114 81 84 96 144 127 124 96 91 102 118 114 121 
95 96 107 73 77 92 82 84 97 32 97 106 64 67 82 
43 51 71 52 58 76 53 60 77 35 45 64 33 43 63 
27 34 48 26 33 48 24 29 42 28 35 53 26 30 46 
23 29 46 20 25 40 21 25 37 18 21 31 18 21 31 
17 20 30 14 16 24 14 16 23 17 17 25 16 17 26 
27 26 35 45 41 52 53 47 59 54 48 62 52 46 58 
43 39 51 51 46 58 46 42 54 55 48 60 58 53 65 
62 54 66 62 56 65 65 56 70 61 55 68 49 46 57 
67 58 72 69 61 75 52 48 62 73 64 78 73 64 78 
80 69 82 61 56 70 73 65 81 71 62 77 66 58 71 
88 73 80 80 70 83 79 67 79 77 67 78 86 71 78 
57 48 55 28 23 31 20 18 26 19 16 23 35 27 31 
44 45 52 45 43 53 56 53 63 50 46 50 135 94 73 
132 98 85 188 130 95 156 122 105 126 92 76 88 65 59 
64 51 53 77 67 75 129 105 98 105 93 94 109 93 99 
117 90 85 125 95 83 131 103 91 149 118 99 112 102 107 
64 71 91 106 99 100 93 84 84 100 95 103 95 92 102 
87 90 104 68 75 95 60 68 86 52 60 78 38 45 62 
51 59 78 58 65 86 45 52 71 40 50 71 26 33 54 
21 30 47 24 30 46 31 39 58 32 41 59 29 34 51 
48 43 55 52 46 58 54 47 59 55 48 61 54 46 60 
59 50 64 112 50 63 57 50 62 54 45 57 56 47 58 
48 44 57 59 50 62 66 55 69 62 55 68 55 48 61 
68 58 66 74 65 74 82 71 82 73 64 77 67 59 74 
69 62 76 48 49 65 67 59 74 76 66 82 49 47 61 
67 58 69 67 57 70 70 60 71 58 50 62 77 66 79 
73 64 77 74 68 83 68 62 76 54 50 64 71 64 77 
74 67 82 105 76 84 69 85 87 124 97 96 97 83 90 
161 121 105 170 123 102 166 117 94 102 77 77 108 75 64 
137 103 89 136 100 84 137 108 99 105 78 75 147 109 94 
107 78 69 113 88 80 87 69 65 105 75 64 112 97 97 
55 55 70 135 112 104 149 106 84 138 110 95 120 104 98 
111 90 85 100 84 88 107 99 108 87 88 103 94 87 95 
95 88 93 105 94 101 84 85 103 86 87 103 77 78 93 
78 80 98 67 73 94 73 77 95 68 69 86 49 50 68 
50 42 54 52 44 57 53 46 58 53 46 58 45 42 55 
10 48 60 58 48 62 57 50 63 51 46 57 71 47 59 
61 52 65 54 45 56 58 49 58 78 65 72 61 54 64 
77 62 66 81 64 67 82 65 69 84 67 69 72 59 63 
72 61 75 75 65 79 77 65 80 71 63 79 62 56 71 
78 66 80 69 60 73 60 52 65 74 63 76 76 63 78 
76 63 75 62 53 64 69 59 70 81 72 89 75 67 83 
65 54 63 51 44 53 54 45 54 65 55 63 54 50 66 
79 67 76 65 52 55 82 67 71 76 66 73 72 64 74 
48 45 50 97 80 78 155 119 102 113 92 89 80 62 62 
96 75 72 137 97 80 82 72 78 101 48 54 126 97 87 
88 68 72 94 73 71 139 93 70 125 81 63 124 97 87 
73 62 66 134 109 99 133 105 95 97 86 90 114 100 105 
131 107 99 143 105 90 132 105 97 91 85 96 115 94 91 
110 96 99 79 78 98 94 87 101 94 88 102 96 88 100 
45 40 52 49 42 53 52 45 56 51 45 59 43 37 49 
51 45 57 56 47 60 57 48 61 56 49 61 50 46 60 
44 41 54 37 35 47 15 15 22 20 18 24 49 41 49 
36 35 48 31 32 42 26 28 38 27 28 38 46 40 50 
68 58 70 72 61 75 72 60 73 63 56 70 77 64 78 
78 65 79 70 59 73 66 58 71 76 63 73 70 60 72 
63 55 66 81 67 82 81 68 81 64 58 75 65 57 73 
79 65 78 57 51 60 38 34 42 74 60 70 80 66 78 
65 54 65 51 44 55 60 51 61 85 69 80 86 70 79 
86 70 80 105 82 89 110 88 91 83 69 76 65 59 68 
124 97 89 155 113 93 141 105 91 94 75 75 130 89 72 
114 83 71 142 107 89 128 95 82 66 52 56 29 26 37 
95 72 67 128 95 85 65 57 69 90 76 75 143 109 98 
142 106 91 129 99 89 135 95 79 141 101 82 158 119 97 
117 89 84 111 95 91 129 105 97 102 88 93 70 67 83 
44 39 50 44 38 48 47 42 53 47 40 52 49 42 53 
51 43 55 49 42 54 50 44 56 32 32 43 37 34 45 
55 49 62 45 46 58 44 42 55 53 48 60 64 55 67 
69 58 70 69 57 70 70 57 72 68 58 72 68 58 71 
64 53 65 52 44 54 53 45 58 70 57 68 70 59 73 
66 56 68 65 56 68 69 58 68 72 58 68 61 52 59 
48 41 51 71 58 70 81 66 76 73 62 75 77 62 75 
79 65 76 74 61 73 74 63 75 72 59 71 78 63 75 
68 57 70 67 56 69 75 61 73 72 59 68 62 51 64 
65 57 68 59 59 71 70 63 75 41 37 48 40 42 56 
92 74 83 103 80 84 38 35 46 47 44 55 77 65 74 
35 32 42 34 28 33 62 47 51 32 36 50 76 66 74 
39 39 51 55 51 60 96 76 74 118 86 76 76 59 58 
80 65 67 111 84 79 104 79 74 134 93 75 125 88 75 
60 44 41 40 34 41 96 70 59 123 100 94 117 92 85 
69 36 46 46 40 50 47 41 52 48 42 53 50 43 55 
53 47 61 49 44 55 44 41 52 57 48 61 59 50 63 
57 50 63 60 50 64 63 54 67 63 53 66 64 53 65 
63 52 65 61 51 64 65 54 68 57 52 67 45 41 56 
41 38 50 35 31 42 43 41 52 35 35 47 50 43 56 
54 48 63 49 42 55 59 49 60 49 43 51 38 37 49 
59 53 66 66 55 69 77 62 74 77 63 75 77 62 75 
74 60 73 74 60 71 79 62 74 69 57 69 76 60 70 
77 61 72 71 56 67 71 58 70 73 61 73 73 62 73 
61 52 63 53 48 59 49 51 71 56 48 58 67 55 65 
56 48 57 58 49 59 37 37 48 48 45 57 71 59 73 
78 63 72 82 67 77 76 66 75 79 69 78 52 52 72 
52 49 65 38 34 42 122 89 80 100 80 82 61 54 65 
103 78 74 114 82 76 86 68 67 56 44 51 105 78 74 
110 80 74 50 36 39 51 45 51 71 57 61 104 74 64 
43 36 46 101 34 44 35 32 43 46 39 51 46 40 51 
47 41 53 52 44 56 51 45 56 49 43 55 48 42 53 
53 45 58 59 48 62 58 47 60 56 48 60 60 46 53 
59 50 59 61 51 63 60 52 64 51 47 62 44 42 55 
58 50 63 64 55 67 59 53 66 25 28 42 20 22 33 
58 48 59 32 61 72 73 60 73 60 51 63 56 50 63 
75 59 69 70 57 70 58 48 62 70 58 71 71 58 70 
67 55 67 69 57 68 70 57 68 71 57 69 67 55 68 
68 56 68 70 57 70 66 54 67 74 59 70 71 57 68 
75 60 70 75 61 72 70 57 68 32 59 70 68 56 69 
64 54 66 65 54 63 67 55 66 66 55 67 67 55 68 
64 54 67 58 50 63 38 36 48 54 49 62 70 60 73 
66 59 73 72 61 72 84 69 79 93 74 80 89 71 81 
76 64 73 101 74 72 107 77 72 100 71 65 115 85 77 
114 81 73 102 72 63 32 75 70 95 70 66 92 69 70 
