P3
30 20
255
72 141 150 126 132 147 125 141 147 140 145 152 147 144 151 
158 151 159 136 139 154 117 128 151 105 125 143 143 144 150 
136 145 161 160 165 174 165 166 173 142 146 159 118 131 148 
122 135 154 154 161 175 171 174 180 158 162 173 160 161 175 
162 165 174 133 140 156 109 138 148 136 138 147 165 157 162 
162 158 163 142 142 151 101 152 151 114 7 2 154 152 151 
135 138 151 136 138 147 133 141 156 125 133 147 77 124 138 
117 128 136 116 121 127 116 129 143 126 135 145 97 151 163 
32 139 157 134 142 154 150 157 167 141 142 155 131 134 146 
147 154 168 155 158 176 166 171 185 166 169 180 10 176 186 
186 188 193 108 169 175 161 159 157 160 151 150 177 170 170 
161 160 163 172 169 174 157 156 156 129 134 140 135 141 150 
32 118 135 126 128 137 103 112 122 88 107 124 94 109 123 
107 125 137 141 146 158 97 151 163 151 154 165 151 159 173 
127 129 143 145 143 160 134 142 157 108 123 137 158 155 156 
101 154 162 167 164 169 180 168 168 177 175 183 147 146 158 
139 140 146 155 147 146 132 131 131 145 133 126 151 138 125 
105 155 146 142 145 136 58 16 14 147 138 135 142 137 138 
98 110 124 94 108 125 98 107 116 117 119 123 94 107 124 
136 137 141 122 129 138 125 132 146 151 154 167 145 147 155 
165 151 153 138 136 152 127 135 151 116 123 133 140 139 149 
155 154 163 137 135 146 101 144 148 147 144 153 136 136 137 
150 145 144 157 152 155 134 138 151 105 136 138 155 151 149 
142 138 137 140 136 132 146 139 133 137 133 124 156 142 141 
109 110 117 114 114 118 94 101 111 107 115 123 93 100 109 
112 119 127 131 124 126 123 130 138 97 145 154 129 128 139 
10 129 137 125 127 125 95 108 115 134 125 115 146 134 126 
149 148 155 147 145 153 158 151 153 149 144 146 32 139 140 
152 145 139 163 158 157 136 135 143 130 128 134 155 151 143 
166 161 151 137 132 142 171 160 155 154 143 138 167 158 161 
108 113 119 103 108 109 115 114 109 111 114 110 102 112 123 
97 100 106 95 95 97 100 99 106 110 10 1 128 124 127 
120 125 128 100 104 117 132 136 132 137 119 88 115 105 83 
110 111 102 146 149 162 153 153 159 146 146 157 131 132 135 
160 155 153 163 158 158 10 5 29 114 142 153 155 153 145 
155 148 147 156 149 151 105 160 157 163 149 141 158 153 149 
135 135 134 108 111 114 109 106 108 110 109 111 130 132 138 
82 91 106 99 104 111 111 112 115 114 124 122 112 109 112 
90 99 116 129 131 141 111 131 139 122 127 140 123 124 132 
108 97 94 131 130 139 149 143 145 101 0 0 86 99 121 
117 119 133 154 147 149 139 137 144 158 157 164 153 144 142 
160 153 145 146 144 148 165 158 148 115 163 159 150 144 148 
101 120 109 82 94 93 106 110 118 113 117 120 97 101 110 
109 109 113 103 109 121 125 134 148 105 125 131 89 101 120 
141 141 150 133 134 143 150 137 134 149 144 149 137 126 120 
87 143 140 158 156 161 117 166 169 123 121 128 131 131 135 
155 153 159 147 147 151 115 146 147 144 142 150 157 156 162 
171 145 137 167 149 138 154 148 141 148 138 132 126 125 128 
101 104 104 117 97 110 82 97 109 85 88 88 82 90 98 
82 87 84 117 118 124 115 115 121 87 96 110 53 108 114 
32 16 28 142 141 148 101 128 141 135 132 128 125 117 117 
119 115 116 144 136 136 161 144 135 150 146 146 171 167 167 
149 147 149 174 172 175 160 158 161 142 129 127 160 149 146 
116 163 158 174 164 160 158 151 156 130 132 142 116 109 95 
101 99 93 108 110 98 86 93 99 102 105 110 110 104 101 
107 111 108 139 142 153 85 101 125 83 87 106 112 113 114 
125 125 130 32 119 128 125 125 134 150 145 145 129 129 128 
69 125 121 148 143 148 127 125 125 157 150 150 153 147 150 
102 156 161 101 136 147 149 149 156 159 152 147 144 136 119 
145 137 127 146 135 132 32 127 132 144 134 117 146 121 103 
99 99 93 97 100 105 112 116 123 111 158 159 131 130 131 
116 121 133 109 113 125 94 92 104 125 116 122 114 116 130 
156 151 153 123 126 136 152 148 149 123 121 128 32 181 179 
140 139 143 133 133 142 123 122 134 133 132 142 85 143 142 
105 128 136 97 162 167 138 138 146 148 142 135 142 136 133 
155 153 151 102 121 130 174 167 158 173 158 146 181 176 175 
112 107 112 76 97 100 108 97 100 95 90 86 122 111 128 
105 111 122 95 93 98 104 94 95 105 111 122 108 128 132 
116 116 125 32 110 120 74 83 107 92 95 114 117 117 128 
95 104 123 145 145 153 145 141 147 101 103 117 153 145 145 
144 141 149 124 124 134 151 145 149 131 134 144 114 149 152 
157 156 164 135 133 142 126 121 111 156 147 153 110 121 131 
87 80 86 93 74 69 113 96 91 111 106 111 10 83 81 
85 85 92 92 93 101 109 111 123 148 143 145 141 139 142 
82 88 96 147 137 134 104 135 144 148 148 155 108 121 130 
130 133 143 154 155 161 137 137 145 110 114 129 143 146 155 
146 150 161 145 144 149 139 139 143 152 153 158 98 111 129 
148 141 143 108 110 122 126 128 135 110 144 155 175 174 176 
82 90 102 141 143 147 79 74 73 85 93 105 65 69 71 
98 76 76 91 86 92 138 121 116 134 129 132 119 122 133 
32 97 114 137 134 138 112 109 118 122 118 126 112 107 114 
139 137 142 110 109 114 102 109 127 121 122 133 138 139 147 
137 133 140 134 135 145 147 139 139 191 179 176 125 124 133 
92 105 124 140 138 142 10 138 141 97 144 147 101 126 120 
96 88 77 99 93 89 68 71 71 80 89 86 116 120 117 
100 90 92 121 122 129 95 82 65 48 83 63 102 95 80 
99 90 94 151 142 135 127 118 118 131 123 121 110 111 118 
65 107 97 121 118 123 127 130 142 32 130 139 153 136 118 
108 106 112 146 140 140 122 116 117 140 140 144 138 138 142 
100 95 113 114 112 119 74 154 154 122 105 84 148 136 135 
80 87 98 71 76 65 43 54 51 54 65 59 83 87 90 
103 109 121 95 88 93 69 65 63 95 80 59 88 90 64 
97 102 97 91 115 70 32 150 121 166 164 129 174 159 145 
93 91 98 90 88 101 131 130 137 131 130 136 116 105 89 
116 107 94 88 94 72 127 127 122 132 131 137 101 105 116 
110 115 124 151 145 145 133 131 133 120 115 118 131 107 81 
114 74 54 50 57 54 68 76 78 109 99 99 106 106 110 
99 92 95 111 88 75 44 75 49 84 70 43 81 71 45 
111 74 55 89 115 78 49 117 92 48 115 78 123 113 63 
90 92 84 97 98 102 94 92 89 105 104 100 149 140 135 
130 124 128 127 113 104 87 88 98 118 115 122 112 107 95 
183 173 155 70 137 143 114 163 165 123 124 129 167 146 135 
70 78 77 32 108 113 101 96 103 108 103 101 84 85 83 
80 83 89 91 71 54 106 93 42 72 68 43 38 58 44 
71 101 44 61 105 47 60 101 43 75 73 44 108 87 48 
92 82 59 94 99 109 122 115 119 106 111 119 100 96 100 
123 119 124 103 102 111 97 98 106 129 120 99 136 122 91 
105 111 94 153 140 113 152 136 125 117 90 75 122 109 100 
109 119 133 85 95 109 67 78 87 109 84 91 83 78 73 
96 68 56 110 79 33 86 73 37 108 19 27 48 92 44 
54 99 44 57 95 43 91 85 39 101 73 41 111 95 46 
32 10 16 108 77 72 115 113 122 103 96 101 99 98 106 
113 110 110 127 126 126 150 138 125 127 115 117 103 106 95 
132 106 75 132 119 108 87 94 85 68 85 80 118 103 68 
105 97 91 83 86 95 99 102 103 77 81 73 90 69 54 
108 74 34 89 67 32 37 45 40 97 80 41 51 95 42 
112 93 43 107 102 35 91 73 42 114 79 38 106 86 39 
111 85 42 97 78 55 121 118 100 120 126 132 106 104 112 
67 72 65 109 105 95 109 91 81 109 102 100 86 88 96 
46 129 113 32 149 149 134 145 154 114 125 134 84 94 95 
